#!OML:ASF H:\Terrain\Patient Classification 1\Walking\liu\liu.ASF
:FULLY-SPECIFIED
:DEGREES
340
root 10.341419 18.295971 13.219910 6.280450 12.175460 -1.045260
lowerback -7.005020 -5.046041 -2.462581
upperback -1.592558 -6.652250 3.560227
thorax 2.908114 -3.350314 4.461193
lowerneck -22.327579 -5.776551 -14.107280
upperneck 23.566950 -7.529907 15.070660
head 12.390180 -2.818233 6.758202
rclavicle -0.000000 -0.000000
rhumerus -50.846291 5.143798 -89.322861
rradius 33.387421
rwrist -16.737160
rhand -29.546991 -32.278950
rfingers 7.837522
rthumb -0.314311 -65.256401
lclavicle -0.000000 -0.000000
lhumerus -31.647551 -24.973631 111.509201
lradius 28.571730
lwrist 4.420031
lhand -12.528560 -26.546299
lfingers 7.837522
lthumb 16.109720 5.862835
rfemur -38.077271 1.047188 25.795551
rtibia 45.153351
rfoot -12.798059 2.214344
rtoes -14.285150
lfemur 10.598467 6.910123 -12.819401
ltibia 42.403240
lfoot 12.962509 0.701160
ltoes -15.262610
341
root 10.298970 18.328421 13.379190 6.286786 11.828740 -1.586827
lowerback -6.752658 -4.802204 -2.334387
upperback -1.738066 -6.340576 3.774342
thorax 2.598574 -3.189175 4.669566
lowerneck -21.800459 -5.919859 -14.472699
upperneck 23.118809 -7.749060 15.500430
head 12.191740 -2.918982 6.933289
rclavicle -0.000000 -0.000000
rhumerus -50.776989 5.329104 -89.382813
rradius 33.965580
rwrist -17.737720
rhand -30.651501 -30.595289
rfingers 7.837522
rthumb -1.381050 -63.568893
lclavicle -0.000000 -0.000000
lhumerus -31.922659 -23.701811 111.232002
lradius 27.429710
lwrist 3.753596
lhand -12.087350 -25.751329
lfingers 7.837522
lthumb 16.534760 6.626477
rfemur -37.299679 2.410628 26.455000
rtibia 44.758339
rfoot -13.547160 1.522037
rtoes -13.809731
lfemur 8.573158 7.287489 -12.148620
ltibia 45.565849
lfoot 13.577740 1.574903
ltoes -14.651890
342
root 10.279611 18.370331 13.537260 6.491584 11.504460 -1.553475
lowerback -6.833145 -4.558763 -2.462702
upperback -1.680866 -6.007210 3.723951
thorax 2.678566 -3.025187 4.713104
lowerneck -21.843250 -6.063156 -14.659260
upperneck 22.781439 -7.930571 15.797100
head 12.127831 -2.982507 7.036546
rclavicle 0.000000 -0.000000
rhumerus -50.314110 5.303716 -89.426041
rradius 34.430332
rwrist -18.382650
rhand -31.677250 -26.876190
rfingers 7.837522
rthumb -2.371787 -59.841869
lclavicle 0.000000 -0.000000
lhumerus -31.924530 -22.874720 110.804100
lradius 26.518690
lwrist 3.332615
lhand -11.471020 -24.698631
lfingers 7.837522
lthumb 17.128429 7.633868
rfemur -36.765518 2.850991 26.616039
rtibia 44.396660
rfoot -13.854501 1.451450
rtoes -13.744280
lfemur 6.620680 7.668958 -12.285789
ltibia 48.459618
lfoot 13.480500 2.927254
ltoes -13.003540
343
root 10.272735 18.416201 13.694560 6.658113 11.725780 -1.246289
lowerback -6.972537 -4.522001 -2.650494
upperback -1.548008 -5.942475 3.554859
thorax 2.888303 -2.998215 4.633365
lowerneck -22.228580 -6.185432 -14.691710
upperneck 22.850851 -8.052968 15.794240
head 12.250040 -3.026474 7.023786
rclavicle 0.000000 0.000000
rhumerus -49.755749 5.367758 -89.515472
rradius 34.846241
rwrist -19.029228
rhand -31.411930 -24.691589
rfingers 7.837522
rthumb -2.115520 -57.659798
lclavicle 0.000000 0.000000
lhumerus -31.938940 -22.499069 110.435608
lradius 25.628901
lwrist 3.391685
lhand -11.400400 -24.078779
lfingers 7.837522
lthumb 17.196409 8.248394
rfemur -36.005859 2.386857 26.497900
rtibia 43.832909
rfoot -14.135880 1.720928
rtoes -14.044909
lfemur 4.612366 7.510206 -12.813680
ltibia 51.363510
lfoot 12.042030 4.865190
ltoes -13.628230
344
root 10.275826 18.460531 13.856920 6.675845 11.796730 -1.086209
lowerback -6.909056 -4.439743 -2.523983
upperback -1.665257 -5.833388 3.355594
thorax 2.690776 -2.936692 4.376317
lowerneck -22.139040 -6.187555 -14.335199
upperneck 23.160280 -8.066730 15.233900
head 12.307130 -3.069033 6.753032
rclavicle 0.000000 0.000000
rhumerus -49.805801 5.385633 -89.627235
rradius 35.403828
rwrist -19.597599
rhand -30.037481 -27.362829
rfingers 7.837522
rthumb -0.788084 -60.339291
lclavicle 0.000000 0.000000
lhumerus -32.600479 -21.853151 110.132004
lradius 24.947889
lwrist 2.989118
lhand -11.176660 -23.475649
lfingers 7.837522
lthumb 17.411791 8.834496
rfemur -34.933689 1.911899 26.517700
rtibia 43.185562
rfoot -14.490850 2.189792
rtoes -13.770020
lfemur 2.838088 7.445768 -13.243450
ltibia 54.103168
lfoot 10.233014 6.798110
ltoes -13.873971
345
root 10.255774 18.498260 13.974730 6.969424 11.720830 -1.637262
lowerback -6.590584 -4.309140 -1.965623
upperback -2.146639 -5.688925 3.459566
thorax 1.964182 -2.845898 4.228191
lowerneck -21.333509 -6.083924 -14.183400
upperneck 23.015301 -7.990026 15.009391
head 12.067881 -3.076293 6.646805
rclavicle 0.000000 0.000000
rhumerus -50.178810 5.909772 -90.064590
rradius 36.171188
rwrist -20.241760
rhand -28.830669 -34.450680
rfingers 7.837522
rthumb 0.377544 -67.428131
lclavicle 0.000000 0.000000
lhumerus -33.575851 -20.653490 109.733253
lradius 24.653090
lwrist 2.106874
lhand -10.789878 -22.482571
lfingers 7.837522
lthumb 17.784361 9.797689
rfemur -34.605560 2.372909 27.279671
rtibia 42.578800
rfoot -14.274920 1.744237
rtoes -12.587521
lfemur 0.337812 7.628214 -12.843710
ltibia 56.560570
lfoot 9.095010 8.388215
ltoes -10.619422
346
root 10.227646 18.525099 14.090780 7.193087 11.532619 -2.172181
lowerback -6.330764 -4.140807 -1.742983
upperback -2.340239 -5.479232 3.729220
thorax 1.608079 -2.734534 4.426455
lowerneck -21.079081 -6.076950 -14.648260
upperneck 22.770000 -7.980434 15.546410
head 11.971410 -3.059925 6.928383
rclavicle 0.000000 0.000000
rhumerus -50.145588 7.322414 -90.821274
rradius 37.222794
rwrist -21.380371
rhand -30.007669 -36.455097
rfingers 7.837522
rthumb -0.759246 -69.431557
lclavicle 0.000000 0.000000
lhumerus -34.024982 -19.715630 109.462753
lradius 24.463230
lwrist 1.586783
lhand -10.471571 -21.498621
lfingers 7.837522
lthumb 18.090820 10.756592
rfemur -34.262802 3.166647 28.006111
rtibia 41.876118
rfoot -13.973190 1.042655
rtoes -11.904969
lfemur -2.126245 7.971667 -12.378410
ltibia 58.931400
lfoot 7.882556 9.650015
ltoes -7.419071
347
root 10.242926 18.566240 14.296371 6.830505 11.327250 -1.033860
lowerback -6.406378 -4.026583 -2.834953
upperback -1.870176 -5.268285 3.401618
thorax 2.177703 -2.646105 4.692710
lowerneck -21.632488 -6.269120 -14.910610
upperneck 22.853491 -8.172098 15.776421
head 12.163580 -3.122306 7.035633
rclavicle -0.000000 -0.000000
rhumerus -49.534870 8.360352 -91.214088
rradius 38.194859
rwrist -22.382141
rhand -32.022320 -32.768780
rfingers 7.837522
rthumb -2.705010 -65.730942
lclavicle -0.000000 -0.000000
lhumerus -34.188442 -19.491781 109.282257
lradius 24.412519
lwrist 1.416470
lhand -9.819029 -20.733131
lfingers 7.837522
lthumb 18.719030 11.468930
rfemur -32.469578 2.598420 26.956930
rtibia 41.222279
rfoot -14.396140 1.720268
rtoes -11.538011
lfemur -2.635072 7.783336 -14.026871
ltibia 60.603729
lfoot 6.379329 10.855504
ltoes -6.759159
348
root 10.224929 18.596159 14.433320 6.921277 11.079640 -1.314027
lowerback -6.383773 -3.770976 -2.594878
upperback -1.788787 -4.942652 3.405556
thorax 2.200242 -2.483866 4.589420
lowerneck -21.692881 -6.435770 -14.903350
upperneck 22.593889 -8.378711 15.786430
head 12.115180 -3.212616 6.991523
rclavicle -0.000000 -0.000000
rhumerus -49.074520 9.056267 -91.641548
rradius 39.046921
rwrist -23.389851
rhand -32.748428 -31.973700
rfingers 7.837522
rthumb -3.406282 -64.926727
lclavicle -0.000000 -0.000000
lhumerus -34.738548 -20.256500 109.279938
lradius 24.537149
lwrist 1.962400
lhand -9.766647 -20.445591
lfingers 7.837522
lthumb 18.769411 11.752180
rfemur -31.741930 3.019412 27.413210
rtibia 40.513439
rfoot -14.314409 1.622555
rtoes -8.701088
lfemur -4.601113 7.995295 -13.967360
ltibia 62.438969
lfoot 5.623794 11.373890
ltoes -6.506203
349
root 10.212301 18.624210 14.583470 6.971184 10.876503 -1.742818
lowerback -6.572885 -3.584746 -2.159388
upperback -1.706837 -4.720199 3.448192
thorax 2.341482 -2.373558 4.395193
lowerneck -21.494440 -6.459035 -14.944050
upperneck 22.271479 -8.420875 15.912160
head 11.974270 -3.229402 7.026712
rclavicle 0.000000 0.000000
rhumerus -48.674343 9.926521 -92.162735
rradius 39.536861
rwrist -24.342670
rhand -32.833351 -32.460232
rfingers 7.837522
rthumb -3.488320 -65.412048
lclavicle 0.000000 0.000000
lhumerus -35.564102 -21.670879 109.622810
lradius 24.620529
lwrist 3.289759
lhand -10.325644 -20.483980
lfingers 7.837522
lthumb 18.231291 11.759440
rfemur -30.951689 3.366957 28.028881
rtibia 39.902828
rfoot -14.273490 1.497540
rtoes -5.826249
lfemur -6.390802 8.286883 -13.741970
ltibia 63.963680
lfoot 4.518591 11.900570
ltoes -6.416179
